<svg id="SvgjsSvg1013" width="288" height="288" xmlns="http://www.w3.org/2000/svg" version="1.1" xmlns:xlink="http://www.w3.org/1999/xlink" xmlns:svgjs="http://svgjs.com/svgjs"><defs id="SvgjsDefs1014"></defs><g id="SvgjsG1015"><svg xmlns="http://www.w3.org/2000/svg" width="288" height="288" version="1.0" viewBox="0 0 230 230"><g transform="matrix(.1 0 0 -.1 0 230)" fill="#0d8e53" class="color000 svgShape"><path d="M318 2256 c-37 -20 -87 -77 -88 -101 0 -10 7 -39 17 -63 16 -42 16-43 -5 -58 -28 -19 -28 -27 3 -61 39 -42 75 -102 75 -123 0 -13 -19 -29 -60
-51 -105 -56 -116 -90 -132 -407 -9 -180 -9 -238 0 -253 7 -10 12 -32 12 -48
0 -32 44 -76 63 -64 6 4 1 10 -11 14 -25 10 -47 51 -39 72 3 9 16 13 32 12 19
-3 29 3 36 18 6 15 7 -17 4 -93 -2 -63 -7 -209 -10 -325 -3 -115 -8 -263 -11
-328 -4 -66 -3 -117 2 -116 5 1 30 1 57 0 45 -1 47 -2 47 -30 0 -17 -5 -33
-10 -36 -6 -4 -19 -23 -30 -44 -20 -41 -46 -53 -91 -44 -35 7 -36 19 -4 74 14
24 25 51 25 59 0 8 -14 -12 -30 -44 -17 -32 -30 -65 -30 -72 0 -16 31 -34 60
-34 29 0 80 28 80 44 0 7 10 26 22 42 16 20 24 48 29 98 16 153 29 297 40 436
8 90 15 137 20 125 4 -11 15 -109 23 -217 9 -109 21 -243 27 -297 11 -97 13
-101 54 -146 42 -45 56 -51 118 -47 30 2 46 27 29 44 -7 7 -10 4 -9 -8 2 -15
-6 -20 -41 -22 -41 -3 -47 0 -88 43 -26 28 -44 57 -44 71 0 21 5 23 57 26 l58
3 -3 240 c-2 132 -7 290 -13 350 -11 135 -12 245 -1 245 4 0 13 -13 19 -30 11
-29 43 -42 43 -18 0 6 -3 8 -7 5 -6 -7 -32 21 -33 36 0 4 14 7 31 7 30 0 30
-1 27 -47 -3 -42 -6 -49 -31 -57 -22 -8 -31 -7 -38 4 -9 13 -10 13 -6 0 5 -22
34 -24 62 -6 21 14 25 24 25 66 0 34 5 52 15 58 14 7 11 37 -20 258 -19 137
-39 265 -45 285 -15 53 -44 85 -106 114 -30 14 -58 33 -61 40 -3 8 7 29 21 46
14 17 26 36 26 44 0 7 11 20 25 29 30 20 32 40 4 59 -19 14 -20 17 -5 39 10
15 15 46 14 91 0 66 -1 69 -32 88 -37 23 -128 26 -168 5z m102 -16 c0 -5 -15
-10 -34 -10 -19 0 -41 -3 -50 -6 -9 -3 -16 -1 -16 4 0 12 22 19 68 21 17 0 32
-3 32 -9z m-25 -98 c39 -2 73 -9 77 -16 4 -6 8 -30 8 -53 0 -31 4 -43 14 -43
28 0 29 -23 4 -44 -14 -12 -28 -30 -30 -41 -2 -11 -21 -31 -42 -45 -22 -14
-33 -26 -25 -28 8 -1 21 -16 28 -33 17 -38 5 -49 -50 -49 -39 0 -69 22 -49 35
7 4 9 18 6 31 -5 18 -2 24 10 24 11 0 4 8 -17 23 -19 12 -35 33 -37 45 -2 14
-14 27 -28 33 -29 10 -29 45 -1 43 18 -2 20 4 17 49 -1 15 1 41 5 58 5 23 11
29 23 23 10 -4 49 -9 87 -12z" fill="#0d8e53" class="color000 svgShape"></path><path d="M325 2050c-3-5-1-10 4-10 6 0 11 5 11 10 0 6-2 10-4 10-3 0-8-4-11-10zM375 1940l-30-8 27-1c15 0 30 4 33 9 3 6 5 9 3 9-2-1-16-5-33-9zM1772 2252c-20-16-24-29-27-86-2-37 0-79 6-93 8-21 6-28-11-40-25-18-26-38 0-56 27-19 72-86 81-122l7-30 1 31c1 21-9 44-29 69-16 21-30 41-30 45 0 4-9 10-21 13-24 6-23 42 1 42 23 0 30 17 24 52-3 17-3 41 1 52 6 20 8 20 36 5 20-10 34-12 42-6 8 7 30 5 64-6 52-17 53-17 53-58 0-33 4-41 17-40 26 2 29-34 4-41-12-3-21-9-21-13 0-3-16-27-36-53l-36-46 19-31c15-27 16-32 3-40-23-15-87-12-104 5-32 32-118-25-154-104-24-52-26-70-36-308-5-139-7-255-4-258 3-3 19-7 37-8 26-2 31-6 30-27 0-23-1-23-9-5-9 20-9 20-9 0-1-12 4-26 11-33 6-6 8-15 4-19-4-5-19 6-32 22-25 30-25 30-13 3 6-15 25-32 41-39l29-12-1-259c-1-143 2-263 5-267 7-7 13-8 51-10l27-1-7-83c-4-45-11-85-14-88-4-4-17-3-29 2-20 7-23 15-23 70 0 76-8 75-11-1-2-30-8-66-15-79l-12-23-5 23c-4 22-4 21-6-4 0-15-15-55-32-88-17-34-28-67-25-74 6-17 66-29 95-20 11 3 37 31 57 61 33 50 36 59 31 107-6 62 11 188 29 202 7 6 19 77 30 180 9 94 20 176 24 184 4 7 10-49 15-125 4-77 10-159 14-184l6-45 53-3 52-3 1-67c4-154 17 117 20 414l4 302 22-2c13 0 23-7 23-14 0-7-5-10-11-7-6 4-5-2 3-14 14-23 29-23 36 0 3 11 2 11-7-1-9-12-11-10-11 12 0 22 7 31 35 42 40 17 40 17 20 122-8 44-24 151-35 239-11 88-24 176-30 196-12 44-50 80-113 110-27 12-51 27-53 34-7 16 57 112 79 118 25 8 23 57-4 64-15 4-19 11-15 32 17 90 17 112 2 136-38 58-164 86-214 47zm135-16c11-11-1-13-49-8-29 2-45 8-42 14 7 10 80 5 91-6zm53-20c0-11-19-15-25-6-3 5 1 10 9 10 9 0 16-2 16-4zm-60-444c17 3 30 2 30 0 0-13-43-189-49-200-7-12-47 104-67 190-6 27-6 28 25 17 18-6 45-9 61-7zm-184-720c-11-10-13 3-7 43l6 40 3-39c2-21 1-41-2-44zm24-752c13-8 12-15-9-54-20-39-26-44-42-35-13 6-19 6-19-1 0-5 4-10 9-10 5 0 15-2 23-5 8-3 23 12 38 40 25 46 50 59 50 27 0-9-11-34-25-54-14-20-25-42-25-47 0-21-48-43-79-36-17 4-33 10-36 15-3 4 9 34 25 65 17 32 30 49 31 39 0-17 7-3 24 54 5 14 15 15 35 2z" fill="#0d8e53" class="color000 svgShape"></path><path d="M1865 1940l-30-8 33-1c17 0 32 4 32 9 0 6-1 9-2 9-2-1-16-5-33-9zM1858 1863c6-2 18-2 25 0 6 3 1 5-13 5-14 0-19-2-12-5zM2142 1090c0-14 2-19 5-12 2 6 2 18 0 25-3 6-5 1-5-13zM2060 1048c0-22 38-24 66-3 17 13 16 13-14 2-27-10-34-9-42 3-8 13-10 12-10-2zM1952 440c-1-14 3-43 7-65 6-26 9-31 9-15 1 14-3 43-7 65-6 26-9 31-9 15zM1187 383c-14-31-11-143 4-143 5 0 9 23 9 50 0 41 3 50 18 50 16 1 16 1 0 14-24 18-23 31 5 44l22 11-22 0c-15 1-27-8-36-26zM1075 365c-44-43-29-125 23-125 35 0 52 16 52 50 0 32-17 50-47 50-33 0-28 19 10 35 27 12 29 14 9 15-13 0-34-11-47-25zm39-41c10-4 16-18 16-35 0-24-4-29-24-29-29 0-44 33-26 55 14 17 13 17 34 9zM1253 365c-6-14-7-25-3-25 5 0 10-21 12-47 3-43 6-48 28-51 23-2 24-1 8 11-23 18-25 87-3 87 8 0 15 5 15 10 0 6-7 10-15 10-8 0-15 7-15 15 0 23-14 18-27-10zM2015 341c-3-6 4-29 15-52 12-22 18-48 15-57-6-14-11-12-32 13l-25 30 16-32c18-37 19-37 47-23 16 9 17 15 9 33-9 20-9 20 2 3 7-10 23-31 36-47 30-36 22-49-31-49-36 0-48 6-84 43-32 32-42 52-46 82l-4 40-1-43c-2-39 2-47 44-87 38-37 52-45 84-45 78 0 88 19 40 78-16 20-36 54-44 74-17 40-31 54-41 39zM740 323l-35-15 35-19c43-22 50-23 50-4 0 12 19 15 109 15 63 0 112 4 116 10 4 6-35 10-109 10-71 0-116 4-116 10 0 13-7 12-50-7zM1530 330c0-6-42-10-106-10-67 0-103-4-99-10 3-6 50-10 106-10 81 0 99-3 99-15 0-8 2-15 4-15 9 0 76 31 76 35 0 4-67 35-76 35-2 0-4-4-4-10z" fill="#0d8e53" class="color000 svgShape"></path><path d="M1960 311 c0 -5 7 -15 17 -22 15 -13 15 -12 4 9 -12 23 -21 28 -21
13z" fill="#0d8e53" class="color000 svgShape"></path></g></svg></g></svg>